<?xml version="1.0" encoding="UTF-8" standalone="no"?>
<svg
   xmlns:dc="http://purl.org/dc/elements/1.1/"
   xmlns:cc="http://creativecommons.org/ns#"
   xmlns:rdf="http://www.w3.org/1999/02/22-rdf-syntax-ns#"
   xmlns:svg="http://www.w3.org/2000/svg"
   xmlns="http://www.w3.org/2000/svg"
   xmlns:xlink="http://www.w3.org/1999/xlink"
   xmlns:sodipodi="http://sodipodi.sourceforge.net/DTD/sodipodi-0.dtd"
   xmlns:inkscape="http://www.inkscape.org/namespaces/inkscape"
   inkscape:version="1.0 (4035a4fb49, 2020-05-01)"
   sodipodi:docname="logo.svg"
   width="210mm"
   height="297mm"
   viewBox="0 0 210 297"
   version="1.1"
   id="svg9546">
  <sodipodi:namedview
     inkscape:current-layer="g2257"
     inkscape:window-maximized="1"
     inkscape:window-y="-8"
     inkscape:window-x="-8"
     inkscape:cy="558.74535"
     inkscape:cx="447.94061"
     inkscape:zoom="0.60851062"
     showgrid="false"
     id="namedview31"
     inkscape:window-height="715"
     inkscape:window-width="1366"
     inkscape:pageshadow="2"
     inkscape:pageopacity="0"
     guidetolerance="10"
     gridtolerance="10"
     objecttolerance="10"
     borderopacity="1"
     bordercolor="#666666"
     pagecolor="#ffffff" />
  <defs
     id="defs9540">
    <linearGradient
       xlink:href="#linearGradient847"
       id="linearGradient2133"
       x1="-144.40294"
       y1="27.006926"
       x2="-88.716843"
       y2="27.006926"
       gradientUnits="userSpaceOnUse" />
    <linearGradient
       id="linearGradient847">
      <stop
         style="stop-color:#ffcc00;stop-opacity:1;"
         offset="0"
         id="stop843" />
      <stop
         style="stop-color:#ff6800;stop-opacity:1"
         offset="1"
         id="stop845" />
    </linearGradient>
    <linearGradient
       gradientUnits="userSpaceOnUse"
       y2="197.81097"
       x2="-313.37961"
       y1="197.81097"
       x1="-339.77078"
       id="linearGradient864"
       xlink:href="#linearGradient847"
       inkscape:collect="always" />
  </defs>
  <metadata
     id="metadata9543">
    <rdf:RDF>
      <cc:Work
         rdf:about="">
        <dc:format>image/svg+xml</dc:format>
        <dc:type
           rdf:resource="http://purl.org/dc/dcmitype/StillImage" />
        <dc:title />
      </cc:Work>
    </rdf:RDF>
  </metadata>
  <g
     transform="translate(-2.345314,9.4047634)"
     id="layer1">
    <g
       id="g2257"
       transform="matrix(4.0357143,0,0,4.0357143,1425.3095,-659.21334)"
       style="stroke-width:0.247788">
      <g
         inkscape:export-ydpi="96"
         inkscape:export-xdpi="96"
         id="g880">
        <rect
           transform="matrix(0.24778761,0,0,0.24778761,-352.59289,161.01451)"
           style="fill:#000000;stroke:#000000;stroke-width:1;stroke-linecap:round;stroke-linejoin:round;paint-order:markers stroke fill"
           id="rect33"
           width="190.5"
           height="158.75"
           x="9.75"
           y="69.125" />
        <circle
           style="opacity:1;fill:#000000;fill-opacity:1;stroke-width:0.991146;stroke-linecap:round;stroke-linejoin:round;paint-order:markers stroke fill;stroke:url(#linearGradient864)"
           id="path2243"
           cx="-326.5752"
           cy="197.81097"
           r="12.7" />
        <g
           style="stroke-width:1.38491"
           transform="matrix(0.17891999,0,0,0.17891999,-300.18284,188.24)"
           id="g1302">
          <g
             transform="translate(-0.14148077,3.5531287)"
             id="g2144"
             style="stroke-width:1.38491">
            <path
               id="path753"
               style="fill:url(#linearGradient2133);fill-opacity:1;stroke:none;stroke-width:1.38489"
               d="m -115.22972,9.94241 c -4.80841,1.30031 -9.57276,2.62921 -10.58084,2.98355 -0.0687,0.011 -0.13808,0.0234 -0.20891,0.0426 l -15.9702,4.31064 c -1.01369,0.27362 -1.82944,1.36827 -1.82944,2.45453 0,1.08628 0.81575,1.74057 1.82944,1.46696 l 8.44927,-2.28062 5.82302,-1.57174 1.69791,-0.45829 c 1.01366,-0.27361 1.82939,0.38066 1.82939,1.46693 0,1.08627 -0.81574,2.18095 -1.8294,2.45456 l -2.1851,0.58982 -5.33582,1.44023 c -1.01367,0.27359 -1.83003,1.36841 -1.83003,2.45466 0,1.08627 0.81636,1.74043 1.83003,1.4668 l 4.86377,-1.3128 2.65715,-0.71722 c 1.01366,-0.27363 1.8294,0.38066 1.8294,1.46692 0,1.08628 -0.81574,2.18095 -1.82939,2.45455 l -3.12805,0.84434 -1.83061,0.49411 c -1.0137,0.27362 -1.83002,1.52686 -1.83002,2.45467 2e-5,0.92783 0.81631,1.74103 1.83002,1.46743 l 3.29742,-0.89005 c 1.07562,-0.25301 5.58229,-1.44255 11.02318,-2.91442 l 11.01796,-2.98128 0.47324,-0.39042 c 0.33422,-0.27595 0.55595,-0.5585 0.75608,-0.96199 0.27668,-0.55783 0.28609,-0.62209 0.40104,-2.72822 0.54537,-9.99077 0.72583,-14.44938 0.60303,-14.90856 -0.13209,-0.49407 -0.58442,-0.92062 -1.0279,-0.96875 -0.25944,-0.0282 -5.52655,1.34697 -10.79564,2.7713 z M -96.7421,9.7391 c -0.28313,0.0741 -0.59943,0.16065 -0.95457,0.25829 -1.46512,0.40277 -2.56125,0.74643 -2.66701,0.83615 -0.40535,0.34361 -0.44632,0.58704 -0.5518,3.28298 -0.056,1.43092 -0.12402,3.55697 -0.15137,4.72526 -0.093,3.97431 -0.2406,6.43471 -0.42725,7.1325 -0.42506,1.5894 -1.68844,3.24247 -3.00696,3.93441 -0.15737,0.0827 -5.94735,1.67498 -12.86716,3.5391 -13.77309,3.71031 -13.21487,3.53544 -13.90676,4.3413 -0.79932,0.93095 -1.01533,1.43026 -1.02096,2.36574 -0.005,0.78606 0.1526,1.22463 0.53667,1.49605 0.48047,0.3395 0.68822,0.32262 2.69266,-0.21842 l 1.88998,-0.51013 0.38879,-0.74847 c 0.52616,-1.01236 1.35196,-2.12055 2.19964,-2.951 0.7756,-0.75987 1.01794,-0.91452 2.206,-1.40993 1.02857,-0.42885 2.35001,-0.5713 3.03786,-0.32787 0.77995,0.27603 1.65119,1.08016 2.07041,1.91153 l 0.37541,0.74521 1.28757,-0.31858 5.6e-4,-7.7e-4 c 1.26552,-0.31278 7.31154,-1.94764 11.55057,-3.12381 l 2.15652,-0.59837 0.37019,-0.79499 c 0.48371,-1.0387 1.63235,-2.58597 2.39466,-3.22609 1.07996,-0.90692 2.78318,-1.49855 4.22756,-1.46852 0.94406,0.0197 2.42683,1.09212 2.94932,2.13306 l 0.29746,0.59276 0.59135,-0.16081 c 1.75126,-0.47511 2.80953,-2.53207 2.16589,-4.20881 -0.15231,-0.39688 -0.27519,-0.52871 -0.62983,-0.67402 -0.24242,-0.0994 -0.5439,-0.27271 -0.66937,-0.38494 l -0.22813,-0.20362 -0.004,-5.09701 c -0.004,-5.03349 -0.007,-5.10299 -0.21477,-5.56973 -0.47905,-1.06977 -2.89982,-5.08365 -3.22818,-5.35276 -0.53199,-0.43592 -0.88002,-0.46784 -2.86203,0.0542 z m -2.06982,2.11031 1.45227,-0.39199 c 1.37186,-0.3703 1.4796,-0.38403 1.94878,-0.25829 0.59804,0.16034 0.98397,0.55328 1.59076,1.61999 0.25135,0.44181 0.75193,1.31203 1.11293,1.93369 0.90155,1.55261 0.93771,1.67583 0.93774,3.22406 -1e-5,1.20091 -0.0167,1.33041 -0.20082,1.55997 -0.19017,0.23651 -0.39562,0.30285 -3.869,1.24038 -3.36596,0.90852 -3.68097,0.97907 -3.81897,0.85172 -0.13022,-0.12008 -0.14281,-0.40116 -0.0943,-2.08551 0.0708,-2.46533 0.252,-6.35692 0.30966,-6.6659 0.0243,-0.12959 0.17618,-0.41374 0.33761,-0.6316 z m -42.29883,13.03548 c -1.0137,0.27363 -1.83001,1.52686 -1.83001,2.45468 -2e-5,0.92783 0.81631,1.74043 1.83001,1.46683 l 2.532,-0.68346 c 1.01371,-0.2736 1.83002,-1.36845 1.83001,-2.4547 0,-1.08628 -0.8163,-1.7404 -1.83001,-1.46676 z m -1.46218,8.23764 c -1.01368,0.27362 -1.83001,1.52689 -1.83001,2.45469 0,0.92781 0.81635,1.74102 1.83001,1.4674 l 2.532,-0.68343 c 1.01371,-0.27361 1.83005,-1.36907 1.83005,-2.45532 0,-1.08629 -0.81635,-1.7404 -1.83006,-1.46677 z m 6.90042,-1.86254 c -1.01368,0.2736 -1.82941,1.52671 -1.82943,2.45452 2e-5,0.92782 0.81576,1.74118 1.82943,1.46755 l 0.27999,-0.0756 c 1.01369,-0.27362 1.83,-1.36903 1.83,-2.45531 0,-1.08625 -0.81631,-1.74039 -1.83,-1.46677 z m 39.03987,-0.52523 c -0.13186,0.0331 -0.26672,0.0743 -0.40396,0.12155 -0.95842,0.33275 -1.95856,1.16394 -2.55005,2.11928 -0.65914,1.06465 -0.97463,2.13339 -0.98602,3.33986 -0.0209,2.21509 1.06554,3.57699 2.84283,3.5639 0.77041,-0.008 1.93749,-0.52395 2.66991,-1.1857 1.29627,-1.17119 2.17047,-3.34296 2.00119,-4.97253 -0.24687,-2.37567 -1.59642,-3.48525 -3.5739,-2.98638 z m -25.22508,6.84702 c -0.86931,0.23463 -1.00828,0.30073 -1.57333,0.74393 -1.5217,1.19361 -2.49251,3.00647 -2.63618,4.92275 -0.15803,2.10754 0.71919,3.46834 2.3143,3.58964 0.31691,0.0241 0.70145,-0.0416 1.2078,-0.20657 1.73024,-0.56383 3.28596,-2.38005 3.8533,-4.49836 0.24307,-0.90758 0.21838,-2.51105 -0.0489,-3.1787 -0.28094,-0.70177 -0.94503,-1.31291 -1.61699,-1.48783 -0.48818,-0.12703 -0.64757,-0.11488 -1.50001,0.11512 z" />
            <g
               id="g761"
               transform="matrix(1.4513071,0,0,1.4619734,408.50681,-405.50138)"
               style="fill:#ffffff;stroke-width:0.950757">
              <text
                 xml:space="preserve"
                 style="font-weight:bold;font-size:17.0957px;line-height:1.25;font-family:Montserrat;-inkscape-font-specification:'Montserrat Bold';letter-spacing:0px;word-spacing:0px;fill:#ffffff;fill-opacity:1;stroke-width:0.251559"
                 x="-391.32745"
                 y="224.27647"
                 id="text757"
                 transform="matrix(0.96592581,-0.25881905,0,1.0352762,0,0)"><tspan
                   x="-391.32745"
                   y="224.27647"
                   style="fill:#ffffff;fill-opacity:1;stroke-width:0.251559"
                   id="tspan755">ala</tspan></text>
              <path
                 d="m -405.08319,327.02078 c -0.76586,0.20521 -1.38265,0.97726 -1.38265,1.73097 0,0.75368 0.61679,1.19522 1.38265,0.99001 l 3.25451,-0.87205 4.04167,-1.08296 0.65936,-0.17667 c 0.76591,-0.20523 1.38268,0.23629 1.38268,0.99001 0,0.69651 -0.52703,1.40783 -1.21144,1.67386 l 0.003,0.0104 -0.1747,0.0468 -0.92094,0.24676 c -0.76589,0.20522 -1.38265,0.97726 -1.38265,1.73097 10e-6,0.75368 0.61676,1.19523 1.38264,0.99001 l 1.93026,-0.51721 0.80614,-0.216 c 0.76589,-0.20522 1.38265,0.2363 1.38265,0.99001 0,0.74453 -0.60222,1.50525 -1.3552,1.72145 l 5.9e-4,0.002 -0.0279,0.007 -1.22792,0.32902 c -0.76592,0.20523 -1.38268,0.9773 -1.38268,1.73098 0,0.75368 0.61676,1.19522 1.38268,0.99 l 2.08995,-0.56 0.0684,-0.0183 3.06829,-0.82214 2.88314,-9.9846 2.79277,8.46374 3.15516,-0.84542 4.1525,-14.71701 -2.81076,0.75314 -2.95549,10.43144 -2.9016,-8.86204 -2.7199,0.7288 -2.99193,10.36363 -2.86517,-8.79422 -2.06152,0.55238 z m 0.87054,5.2087 c -0.76589,0.20522 -1.38267,0.97726 -1.38268,1.73098 10e-6,0.75368 0.61679,1.19522 1.38268,0.99 l 2.38396,-0.63878 c 0.76589,-0.20522 1.38267,-0.9773 1.38267,-1.73098 10e-6,-0.75371 -0.61678,-1.19522 -1.38267,-0.99 z m -1.25836,5.77859 c -0.76591,0.20523 -1.38217,0.97716 -1.38217,1.73084 0,0.75368 0.61626,1.19536 1.38217,0.99014 l 2.15882,-0.57846 c 0.76591,-0.20523 1.38268,-0.97729 1.38268,-1.73097 0,-0.75369 -0.61676,-1.19523 -1.38267,-0.99001 z m 5.58354,-1.49611 c -0.76589,0.20522 -1.38216,0.97716 -1.38216,1.73084 0,0.75368 0.61627,1.19536 1.38216,0.99014 l 0.003,-7.8e-4 c 0.76591,-0.20522 1.38267,-0.97729 1.38267,-1.73097 10e-6,-0.75368 -0.61676,-1.19523 -1.38267,-0.99 z"
                 style="font-weight:bold;font-size:18.7727px;line-height:1.25;font-family:Montserrat;-inkscape-font-specification:'Montserrat Bold';letter-spacing:0px;word-spacing:0px;fill:#ffffff;fill-opacity:1;stroke-width:72351"
                 id="path759" />
            </g>
            <g
               id="g769"
               transform="matrix(1.3907338,0,0,1.400955,427.74628,-333.69186)"
               style="fill:#ffffff;stroke-width:0.992177">
              <text
                 transform="matrix(0.96592577,-0.25881904,0,1.0352762,0,0)"
                 id="text765"
                 y="160.75514"
                 x="-453.83264"
                 style="font-weight:bold;font-size:16.5086px;line-height:1.25;font-family:Montserrat;-inkscape-font-specification:'Montserrat Bold';letter-spacing:0px;word-spacing:0px;fill:#ffffff;fill-opacity:1;stroke-width:0.262513"
                 xml:space="preserve"><tspan
                   dx="0 0 0 0 0"
                   dy="0 0 0 0 0"
                   id="tspan763"
                   style="fill:#ffffff;fill-opacity:1;stroke-width:0.262513"
                   y="160.75514"
                   x="-453.83264">empo </tspan></text>
              <path
                 d="m -448.97081,272.26472 v 7.2e-4 l -5.46045,1.46313 c -0.7058,0.1891 -1.27419,0.94991 -1.27419,1.70634 10e-6,0.75643 0.56839,1.21336 1.27419,1.02423 l 5.18386,-1.38899 0.27659,-0.0741 4.27869,-1.14646 0.046,-0.0118 1.2e-4,0.005 c 0.73749,-0.17125 1.32466,0.312 1.32466,1.10908 -10e-6,0.79701 -0.58717,1.59564 -1.32466,1.81961 l 1.4e-4,0.005 -0.046,0.0118 -3.59967,0.96453 c -0.75938,0.20348 -1.37116,1.02242 -1.37115,1.83633 0,0.8139 0.61177,1.305 1.37115,1.10153 l 3.59967,-0.96454 0.046,-0.0118 1.4e-4,0.005 c 0.73747,-0.17124 1.32464,0.3127 1.32464,1.10978 0,0.79703 -0.58717,1.59499 -1.32464,1.81893 l 1.4e-4,0.005 -0.046,0.0118 -1.04872,0.28101 c -0.75939,0.20347 -1.37118,1.02241 -1.37119,1.83632 0,0.81389 0.6118,1.30568 1.37121,1.10219 l 1.88764,-0.50579 c 0.005,-0.001 0.01,-0.004 0.0131,-0.005 l 2.32092,-0.6219 10e-6,-11.752 4.32389,-1.15859 v -2.73131 z m -3.91691,6.71937 c -0.75938,0.20346 -1.37051,1.02223 -1.37051,1.83615 0,0.8139 0.61113,1.30517 1.37051,1.10169 l 1.3345,-0.35757 c 0.75938,-0.20348 1.3705,-1.02225 1.37048,-1.83615 2e-5,-0.81393 -0.6111,-1.30517 -1.37048,-1.10169 z m -0.29034,5.95417 c -0.75939,0.20347 -1.37051,1.02222 -1.37051,1.83614 0,0.81388 0.61112,1.30585 1.37052,1.10236 l 0.92807,-0.24867 c 0.75941,-0.20349 1.37054,-1.02296 1.37053,-1.83684 1e-5,-0.81391 -0.61112,-1.30516 -1.37053,-1.10168 z m 3.98112,-1.06675 c -0.75943,0.20349 -1.37051,1.02224 -1.37052,1.83614 0,0.81389 0.61109,1.30586 1.37052,1.10237 l 0.28576,-0.0765 c 0.75938,-0.20347 1.37052,-1.02295 1.37052,-1.83682 0,-0.81391 -0.61114,-1.30516 -1.37052,-1.10169 z"
                 style="font-weight:bold;font-size:15.2199px;line-height:1.25;font-family:Montserrat;-inkscape-font-specification:'Montserrat Bold';letter-spacing:0px;word-spacing:0px;fill:#ffffff;fill-opacity:1;stroke-width:0.262513"
                 id="path767" />
            </g>
          </g>
        </g>
      </g>
    </g>
  </g>
</svg>
